<svg width="514" height="514" viewBox="0 0 514 514" fill="none" xmlns="http://www.w3.org/2000/svg">
<g clip-path="url(#clip0_854_41)">
<path d="M392.241 281.975L300.7 373.516C276.832 397.384 238.135 397.384 214.267 373.516L15.2057 174.455C6.80783 166.057 6.80782 152.441 15.2057 144.043L47.0431 112.206C55.441 103.808 69.0567 103.808 77.4546 112.206L214.267 249.019C238.135 272.886 276.832 272.886 300.7 249.019L329.992 219.726C338.39 211.329 352.006 211.328 360.404 219.726L392.241 251.564C400.639 259.962 400.639 273.577 392.241 281.975Z" stroke="#FF3D3D" stroke-width="11.318"/>
<path d="M499.779 144.274L467.711 112.206C459.313 103.808 445.697 103.808 437.299 112.206L377.323 172.182C368.925 180.58 368.925 194.195 377.323 202.593L409.392 234.662C417.789 243.06 431.405 243.06 439.803 234.662L499.779 174.686C508.177 166.288 508.177 152.672 499.779 144.274Z" stroke="#3DDA98" stroke-width="11.318"/>
</g>
<defs>
<clipPath id="clip0_854_41">
<rect width="514" height="514" fill="white"/>
</clipPath>
</defs>
</svg>
